<mxfile host="65bd71144e">
    <diagram id="R2lEEEUBdFMjLlhIrx00" name="Page-1">
        <mxGraphModel dx="1385" dy="1113" grid="1" gridSize="10" guides="1" tooltips="1" connect="1" arrows="1" fold="1" page="1" pageScale="1" pageWidth="2000" pageHeight="1500" math="0" shadow="0" extFonts="Permanent Marker^https://fonts.googleapis.com/css?family=Permanent+Marker">
            <root>
                <mxCell id="0"/>
                <mxCell id="1" parent="0"/>
                <mxCell id="E62PyVoubsWn6WVu2slN-176" value="" style="rounded=0;whiteSpace=wrap;html=1;fontFamily=Helvetica;fontSize=30;fontColor=#4FE0E0;strokeColor=#006600;strokeWidth=3;fillColor=none;gradientColor=none;" parent="1" vertex="1">
                    <mxGeometry x="1079" y="20" width="380" height="799" as="geometry"/>
                </mxCell>
                <mxCell id="E62PyVoubsWn6WVu2slN-174" value="" style="rounded=0;whiteSpace=wrap;html=1;fontFamily=Helvetica;fontSize=30;fontColor=#4FE0E0;strokeColor=#4FE0E0;strokeWidth=3;fillColor=none;gradientColor=none;" parent="1" vertex="1">
                    <mxGeometry x="680" y="20" width="360" height="799" as="geometry"/>
                </mxCell>
                <mxCell id="E62PyVoubsWn6WVu2slN-172" value="" style="rounded=0;whiteSpace=wrap;html=1;fontFamily=Helvetica;fontSize=30;fontColor=#4FE0E0;strokeColor=#663300;strokeWidth=3;fillColor=none;gradientColor=none;" parent="1" vertex="1">
                    <mxGeometry x="120" y="20" width="240" height="800" as="geometry"/>
                </mxCell>
                <mxCell id="E62PyVoubsWn6WVu2slN-173" value="" style="rounded=0;whiteSpace=wrap;html=1;fontFamily=Helvetica;fontSize=30;fontColor=#4FE0E0;strokeColor=#E68E29;strokeWidth=3;fillColor=none;gradientColor=none;" parent="1" vertex="1">
                    <mxGeometry x="400" y="20" width="240" height="799" as="geometry"/>
                </mxCell>
                <mxCell id="E62PyVoubsWn6WVu2slN-1" value="" style="ellipse;whiteSpace=wrap;html=1;aspect=fixed;strokeWidth=3;fillColor=#964D2A;fontColor=#ffffff;strokeColor=#6D1F00;" parent="1" vertex="1">
                    <mxGeometry x="160" y="120" width="40" height="40" as="geometry"/>
                </mxCell>
                <mxCell id="E62PyVoubsWn6WVu2slN-3" value="" style="endArrow=classic;startArrow=classic;html=1;rounded=0;dashed=1;dashPattern=1 1;strokeWidth=3;entryX=1;entryY=0.5;entryDx=0;entryDy=0;" parent="1" target="E62PyVoubsWn6WVu2slN-1" edge="1">
                    <mxGeometry width="50" height="50" relative="1" as="geometry">
                        <mxPoint x="280" y="140" as="sourcePoint"/>
                        <mxPoint x="270" y="240" as="targetPoint"/>
                    </mxGeometry>
                </mxCell>
                <mxCell id="E62PyVoubsWn6WVu2slN-4" value="" style="ellipse;whiteSpace=wrap;html=1;aspect=fixed;strokeWidth=3;fillColor=none;fontColor=#ffffff;strokeColor=#6D1F00;" parent="1" vertex="1">
                    <mxGeometry x="280" y="120" width="40" height="40" as="geometry"/>
                </mxCell>
                <mxCell id="E62PyVoubsWn6WVu2slN-9" value="" style="endArrow=classic;startArrow=classic;html=1;rounded=0;dashed=1;dashPattern=1 1;strokeWidth=3;entryX=1;entryY=0.5;entryDx=0;entryDy=0;" parent="1" target="E62PyVoubsWn6WVu2slN-8" edge="1">
                    <mxGeometry width="50" height="50" relative="1" as="geometry">
                        <mxPoint x="559.9999999999998" y="220" as="sourcePoint"/>
                        <mxPoint x="550" y="320" as="targetPoint"/>
                    </mxGeometry>
                </mxCell>
                <mxCell id="E62PyVoubsWn6WVu2slN-10" value="" style="ellipse;whiteSpace=wrap;html=1;aspect=fixed;strokeWidth=3;fillColor=#E68E29;fontColor=#000000;strokeColor=#CC6600;" parent="1" vertex="1">
                    <mxGeometry x="560" y="200" width="40" height="40" as="geometry"/>
                </mxCell>
                <mxCell id="E62PyVoubsWn6WVu2slN-11" value="" style="ellipse;whiteSpace=wrap;html=1;aspect=fixed;strokeWidth=3;fillColor=#964D2A;fontColor=#ffffff;strokeColor=#6D1F00;" parent="1" vertex="1">
                    <mxGeometry x="160" y="200" width="40" height="40" as="geometry"/>
                </mxCell>
                <mxCell id="E62PyVoubsWn6WVu2slN-12" value="" style="endArrow=classic;startArrow=classic;html=1;rounded=0;dashed=1;dashPattern=1 1;strokeWidth=3;entryX=1;entryY=0.5;entryDx=0;entryDy=0;" parent="1" target="E62PyVoubsWn6WVu2slN-11" edge="1">
                    <mxGeometry width="50" height="50" relative="1" as="geometry">
                        <mxPoint x="279.9999999999998" y="220" as="sourcePoint"/>
                        <mxPoint x="270" y="320" as="targetPoint"/>
                    </mxGeometry>
                </mxCell>
                <mxCell id="E62PyVoubsWn6WVu2slN-13" value="" style="ellipse;whiteSpace=wrap;html=1;aspect=fixed;strokeWidth=3;fillColor=none;fontColor=#ffffff;strokeColor=#6D1F00;" parent="1" vertex="1">
                    <mxGeometry x="280" y="200" width="40" height="40" as="geometry"/>
                </mxCell>
                <mxCell id="E62PyVoubsWn6WVu2slN-14" value="" style="endArrow=classic;html=1;rounded=0;strokeWidth=3;exitX=1.007;exitY=0.668;exitDx=0;exitDy=0;exitPerimeter=0;" parent="1" source="E62PyVoubsWn6WVu2slN-13" edge="1">
                    <mxGeometry width="50" height="50" relative="1" as="geometry">
                        <mxPoint x="460" y="550" as="sourcePoint"/>
                        <mxPoint x="439.9999999999998" y="300" as="targetPoint"/>
                    </mxGeometry>
                </mxCell>
                <mxCell id="E62PyVoubsWn6WVu2slN-16" value="" style="endArrow=classic;startArrow=classic;html=1;rounded=0;dashed=1;dashPattern=1 1;strokeWidth=3;entryX=1;entryY=0.5;entryDx=0;entryDy=0;" parent="1" target="E62PyVoubsWn6WVu2slN-15" edge="1">
                    <mxGeometry width="50" height="50" relative="1" as="geometry">
                        <mxPoint x="560" y="300" as="sourcePoint"/>
                        <mxPoint x="550" y="400" as="targetPoint"/>
                    </mxGeometry>
                </mxCell>
                <mxCell id="E62PyVoubsWn6WVu2slN-17" value="" style="ellipse;whiteSpace=wrap;html=1;aspect=fixed;strokeWidth=3;fillColor=#E68E29;fontColor=#000000;strokeColor=#CC6600;" parent="1" vertex="1">
                    <mxGeometry x="560" y="280" width="40" height="40" as="geometry"/>
                </mxCell>
                <mxCell id="E62PyVoubsWn6WVu2slN-18" value="" style="endArrow=classic;html=1;rounded=0;strokeWidth=3;exitX=0.5;exitY=1;exitDx=0;exitDy=0;entryX=0.5;entryY=0;entryDx=0;entryDy=0;" parent="1" source="E62PyVoubsWn6WVu2slN-8" target="E62PyVoubsWn6WVu2slN-15" edge="1">
                    <mxGeometry width="50" height="50" relative="1" as="geometry">
                        <mxPoint x="900" y="250" as="sourcePoint"/>
                        <mxPoint x="950" y="410" as="targetPoint"/>
                    </mxGeometry>
                </mxCell>
                <mxCell id="E62PyVoubsWn6WVu2slN-41" value="" style="ellipse;whiteSpace=wrap;html=1;aspect=fixed;strokeWidth=3;fillColor=#964D2A;fontColor=#ffffff;strokeColor=#6D1F00;" parent="1" vertex="1">
                    <mxGeometry x="160" y="280" width="40" height="40" as="geometry"/>
                </mxCell>
                <mxCell id="E62PyVoubsWn6WVu2slN-42" value="" style="endArrow=classic;startArrow=classic;html=1;rounded=0;dashed=1;dashPattern=1 1;strokeWidth=3;entryX=1;entryY=0.5;entryDx=0;entryDy=0;" parent="1" target="E62PyVoubsWn6WVu2slN-41" edge="1">
                    <mxGeometry width="50" height="50" relative="1" as="geometry">
                        <mxPoint x="279.9999999999998" y="300" as="sourcePoint"/>
                        <mxPoint x="270" y="400" as="targetPoint"/>
                    </mxGeometry>
                </mxCell>
                <mxCell id="E62PyVoubsWn6WVu2slN-43" value="" style="ellipse;whiteSpace=wrap;html=1;aspect=fixed;strokeWidth=3;fillColor=none;fontColor=#ffffff;strokeColor=#6D1F00;" parent="1" vertex="1">
                    <mxGeometry x="280" y="280" width="40" height="40" as="geometry"/>
                </mxCell>
                <mxCell id="E62PyVoubsWn6WVu2slN-44" value="" style="endArrow=classic;html=1;rounded=0;strokeWidth=3;exitX=1.007;exitY=0.668;exitDx=0;exitDy=0;exitPerimeter=0;" parent="1" source="E62PyVoubsWn6WVu2slN-43" edge="1">
                    <mxGeometry width="50" height="50" relative="1" as="geometry">
                        <mxPoint x="460" y="630" as="sourcePoint"/>
                        <mxPoint x="439.9999999999998" y="380" as="targetPoint"/>
                    </mxGeometry>
                </mxCell>
                <mxCell id="E62PyVoubsWn6WVu2slN-46" value="" style="endArrow=classic;startArrow=classic;html=1;rounded=0;dashed=1;dashPattern=1 1;strokeWidth=3;entryX=1;entryY=0.5;entryDx=0;entryDy=0;" parent="1" target="E62PyVoubsWn6WVu2slN-45" edge="1">
                    <mxGeometry width="50" height="50" relative="1" as="geometry">
                        <mxPoint x="560" y="380" as="sourcePoint"/>
                        <mxPoint x="550" y="480" as="targetPoint"/>
                    </mxGeometry>
                </mxCell>
                <mxCell id="E62PyVoubsWn6WVu2slN-47" value="" style="ellipse;whiteSpace=wrap;html=1;aspect=fixed;strokeWidth=3;fillColor=#E68E29;fontColor=#000000;strokeColor=#CC6600;" parent="1" vertex="1">
                    <mxGeometry x="560" y="360" width="40" height="40" as="geometry"/>
                </mxCell>
                <mxCell id="E62PyVoubsWn6WVu2slN-48" value="" style="endArrow=classic;html=1;rounded=0;strokeWidth=3;exitX=0.5;exitY=1;exitDx=0;exitDy=0;entryX=0.5;entryY=0;entryDx=0;entryDy=0;" parent="1" edge="1">
                    <mxGeometry width="50" height="50" relative="1" as="geometry">
                        <mxPoint x="459.71" y="320" as="sourcePoint"/>
                        <mxPoint x="459.71" y="360" as="targetPoint"/>
                    </mxGeometry>
                </mxCell>
                <mxCell id="E62PyVoubsWn6WVu2slN-5" value="" style="endArrow=classic;html=1;rounded=0;strokeWidth=3;exitX=1.007;exitY=0.668;exitDx=0;exitDy=0;exitPerimeter=0;" parent="1" source="E62PyVoubsWn6WVu2slN-4" edge="1">
                    <mxGeometry width="50" height="50" relative="1" as="geometry">
                        <mxPoint x="460" y="470" as="sourcePoint"/>
                        <mxPoint x="440" y="220" as="targetPoint"/>
                    </mxGeometry>
                </mxCell>
                <mxCell id="E62PyVoubsWn6WVu2slN-8" value="" style="ellipse;whiteSpace=wrap;html=1;aspect=fixed;strokeWidth=3;fillColor=none;fontColor=#000000;strokeColor=#CC6600;" parent="1" vertex="1">
                    <mxGeometry x="440" y="200" width="40" height="40" as="geometry"/>
                </mxCell>
                <mxCell id="E62PyVoubsWn6WVu2slN-15" value="" style="ellipse;whiteSpace=wrap;html=1;aspect=fixed;strokeWidth=3;fillColor=none;fontColor=#000000;strokeColor=#CC6600;" parent="1" vertex="1">
                    <mxGeometry x="440" y="280" width="40" height="40" as="geometry"/>
                </mxCell>
                <mxCell id="E62PyVoubsWn6WVu2slN-45" value="" style="ellipse;whiteSpace=wrap;html=1;aspect=fixed;strokeWidth=3;fillColor=none;fontColor=#000000;strokeColor=#CC6600;" parent="1" vertex="1">
                    <mxGeometry x="440" y="360" width="40" height="40" as="geometry"/>
                </mxCell>
                <mxCell id="E62PyVoubsWn6WVu2slN-49" value="" style="ellipse;whiteSpace=wrap;html=1;aspect=fixed;strokeWidth=3;fillColor=#964D2A;fontColor=#ffffff;strokeColor=#6D1F00;" parent="1" vertex="1">
                    <mxGeometry x="160" y="360" width="40" height="40" as="geometry"/>
                </mxCell>
                <mxCell id="E62PyVoubsWn6WVu2slN-50" value="" style="endArrow=classic;startArrow=classic;html=1;rounded=0;dashed=1;dashPattern=1 1;strokeWidth=3;entryX=1;entryY=0.5;entryDx=0;entryDy=0;" parent="1" target="E62PyVoubsWn6WVu2slN-49" edge="1">
                    <mxGeometry width="50" height="50" relative="1" as="geometry">
                        <mxPoint x="279.9999999999998" y="380.0000000000001" as="sourcePoint"/>
                        <mxPoint x="270" y="480" as="targetPoint"/>
                    </mxGeometry>
                </mxCell>
                <mxCell id="E62PyVoubsWn6WVu2slN-51" value="" style="ellipse;whiteSpace=wrap;html=1;aspect=fixed;strokeWidth=3;fillColor=none;fontColor=#ffffff;strokeColor=#6D1F00;" parent="1" vertex="1">
                    <mxGeometry x="280" y="360" width="40" height="40" as="geometry"/>
                </mxCell>
                <mxCell id="E62PyVoubsWn6WVu2slN-52" value="" style="endArrow=classic;html=1;rounded=0;strokeWidth=3;exitX=1.007;exitY=0.668;exitDx=0;exitDy=0;exitPerimeter=0;" parent="1" source="E62PyVoubsWn6WVu2slN-51" edge="1">
                    <mxGeometry width="50" height="50" relative="1" as="geometry">
                        <mxPoint x="460" y="710" as="sourcePoint"/>
                        <mxPoint x="439.9999999999998" y="460.0000000000001" as="targetPoint"/>
                    </mxGeometry>
                </mxCell>
                <mxCell id="E62PyVoubsWn6WVu2slN-53" value="" style="endArrow=classic;startArrow=classic;html=1;rounded=0;dashed=1;dashPattern=1 1;strokeWidth=3;entryX=1;entryY=0.5;entryDx=0;entryDy=0;" parent="1" target="E62PyVoubsWn6WVu2slN-62" edge="1">
                    <mxGeometry width="50" height="50" relative="1" as="geometry">
                        <mxPoint x="560" y="460.0000000000001" as="sourcePoint"/>
                        <mxPoint x="550" y="560" as="targetPoint"/>
                    </mxGeometry>
                </mxCell>
                <mxCell id="E62PyVoubsWn6WVu2slN-54" value="" style="ellipse;whiteSpace=wrap;html=1;aspect=fixed;strokeWidth=3;fillColor=#E68E29;fontColor=#000000;strokeColor=#CC6600;" parent="1" vertex="1">
                    <mxGeometry x="560" y="440" width="40" height="40" as="geometry"/>
                </mxCell>
                <mxCell id="E62PyVoubsWn6WVu2slN-55" value="" style="ellipse;whiteSpace=wrap;html=1;aspect=fixed;strokeWidth=3;fillColor=#964D2A;fontColor=#ffffff;strokeColor=#6D1F00;" parent="1" vertex="1">
                    <mxGeometry x="160" y="440" width="40" height="40" as="geometry"/>
                </mxCell>
                <mxCell id="E62PyVoubsWn6WVu2slN-56" value="" style="endArrow=classic;startArrow=classic;html=1;rounded=0;dashed=1;dashPattern=1 1;strokeWidth=3;entryX=1;entryY=0.5;entryDx=0;entryDy=0;" parent="1" target="E62PyVoubsWn6WVu2slN-55" edge="1">
                    <mxGeometry width="50" height="50" relative="1" as="geometry">
                        <mxPoint x="279.9999999999998" y="460.0000000000001" as="sourcePoint"/>
                        <mxPoint x="270" y="560" as="targetPoint"/>
                    </mxGeometry>
                </mxCell>
                <mxCell id="E62PyVoubsWn6WVu2slN-57" value="" style="ellipse;whiteSpace=wrap;html=1;aspect=fixed;strokeWidth=3;fillColor=none;fontColor=#ffffff;strokeColor=#6D1F00;" parent="1" vertex="1">
                    <mxGeometry x="280" y="440" width="40" height="40" as="geometry"/>
                </mxCell>
                <mxCell id="E62PyVoubsWn6WVu2slN-58" value="" style="endArrow=classic;html=1;rounded=0;strokeWidth=3;exitX=1.007;exitY=0.668;exitDx=0;exitDy=0;exitPerimeter=0;" parent="1" source="E62PyVoubsWn6WVu2slN-57" edge="1">
                    <mxGeometry width="50" height="50" relative="1" as="geometry">
                        <mxPoint x="460" y="790" as="sourcePoint"/>
                        <mxPoint x="439.9999999999998" y="540.0000000000001" as="targetPoint"/>
                    </mxGeometry>
                </mxCell>
                <mxCell id="E62PyVoubsWn6WVu2slN-59" value="" style="endArrow=classic;startArrow=classic;html=1;rounded=0;dashed=1;dashPattern=1 1;strokeWidth=3;entryX=1;entryY=0.5;entryDx=0;entryDy=0;" parent="1" target="E62PyVoubsWn6WVu2slN-63" edge="1">
                    <mxGeometry width="50" height="50" relative="1" as="geometry">
                        <mxPoint x="560" y="540.0000000000001" as="sourcePoint"/>
                        <mxPoint x="550" y="640" as="targetPoint"/>
                    </mxGeometry>
                </mxCell>
                <mxCell id="E62PyVoubsWn6WVu2slN-60" value="" style="ellipse;whiteSpace=wrap;html=1;aspect=fixed;strokeWidth=3;fillColor=#E68E29;fontColor=#000000;strokeColor=#CC6600;" parent="1" vertex="1">
                    <mxGeometry x="560" y="520" width="40" height="40" as="geometry"/>
                </mxCell>
                <mxCell id="E62PyVoubsWn6WVu2slN-61" value="" style="endArrow=classic;html=1;rounded=0;strokeWidth=3;exitX=0.5;exitY=1;exitDx=0;exitDy=0;entryX=0.5;entryY=0;entryDx=0;entryDy=0;" parent="1" edge="1">
                    <mxGeometry width="50" height="50" relative="1" as="geometry">
                        <mxPoint x="459.71000000000004" y="480.0000000000001" as="sourcePoint"/>
                        <mxPoint x="459.71000000000004" y="520.0000000000001" as="targetPoint"/>
                    </mxGeometry>
                </mxCell>
                <mxCell id="E62PyVoubsWn6WVu2slN-62" value="" style="ellipse;whiteSpace=wrap;html=1;aspect=fixed;strokeWidth=3;fillColor=none;fontColor=#000000;strokeColor=#CC6600;" parent="1" vertex="1">
                    <mxGeometry x="440" y="440" width="40" height="40" as="geometry"/>
                </mxCell>
                <mxCell id="E62PyVoubsWn6WVu2slN-63" value="" style="ellipse;whiteSpace=wrap;html=1;aspect=fixed;strokeWidth=3;fillColor=none;fontColor=#000000;strokeColor=#CC6600;" parent="1" vertex="1">
                    <mxGeometry x="440" y="520" width="40" height="40" as="geometry"/>
                </mxCell>
                <mxCell id="E62PyVoubsWn6WVu2slN-64" value="" style="endArrow=classic;html=1;rounded=0;strokeWidth=3;exitX=0.5;exitY=1;exitDx=0;exitDy=0;entryX=0.5;entryY=0;entryDx=0;entryDy=0;" parent="1" edge="1">
                    <mxGeometry width="50" height="50" relative="1" as="geometry">
                        <mxPoint x="459.55" y="400" as="sourcePoint"/>
                        <mxPoint x="459.55" y="440" as="targetPoint"/>
                    </mxGeometry>
                </mxCell>
                <mxCell id="E62PyVoubsWn6WVu2slN-65" value="" style="ellipse;whiteSpace=wrap;html=1;aspect=fixed;strokeWidth=3;fillColor=#964D2A;fontColor=#ffffff;strokeColor=#6D1F00;" parent="1" vertex="1">
                    <mxGeometry x="160" y="520" width="40" height="40" as="geometry"/>
                </mxCell>
                <mxCell id="E62PyVoubsWn6WVu2slN-66" value="" style="endArrow=classic;startArrow=classic;html=1;rounded=0;dashed=1;dashPattern=1 1;strokeWidth=3;entryX=1;entryY=0.5;entryDx=0;entryDy=0;" parent="1" target="E62PyVoubsWn6WVu2slN-65" edge="1">
                    <mxGeometry width="50" height="50" relative="1" as="geometry">
                        <mxPoint x="279.9999999999998" y="540" as="sourcePoint"/>
                        <mxPoint x="270" y="640" as="targetPoint"/>
                    </mxGeometry>
                </mxCell>
                <mxCell id="E62PyVoubsWn6WVu2slN-67" value="" style="ellipse;whiteSpace=wrap;html=1;aspect=fixed;strokeWidth=3;fillColor=none;fontColor=#ffffff;strokeColor=#6D1F00;" parent="1" vertex="1">
                    <mxGeometry x="280" y="520" width="40" height="40" as="geometry"/>
                </mxCell>
                <mxCell id="E62PyVoubsWn6WVu2slN-68" value="" style="endArrow=classic;html=1;rounded=0;strokeWidth=3;exitX=1.007;exitY=0.668;exitDx=0;exitDy=0;exitPerimeter=0;" parent="1" source="E62PyVoubsWn6WVu2slN-67" edge="1">
                    <mxGeometry width="50" height="50" relative="1" as="geometry">
                        <mxPoint x="460" y="870" as="sourcePoint"/>
                        <mxPoint x="439.9999999999998" y="620" as="targetPoint"/>
                    </mxGeometry>
                </mxCell>
                <mxCell id="E62PyVoubsWn6WVu2slN-69" value="" style="endArrow=classic;startArrow=classic;html=1;rounded=0;dashed=1;dashPattern=1 1;strokeWidth=3;entryX=1;entryY=0.5;entryDx=0;entryDy=0;" parent="1" target="E62PyVoubsWn6WVu2slN-79" edge="1">
                    <mxGeometry width="50" height="50" relative="1" as="geometry">
                        <mxPoint x="560" y="620" as="sourcePoint"/>
                        <mxPoint x="550" y="720" as="targetPoint"/>
                    </mxGeometry>
                </mxCell>
                <mxCell id="E62PyVoubsWn6WVu2slN-70" value="" style="ellipse;whiteSpace=wrap;html=1;aspect=fixed;strokeWidth=3;fillColor=#E68E29;fontColor=#000000;strokeColor=#CC6600;" parent="1" vertex="1">
                    <mxGeometry x="560" y="600" width="40" height="40" as="geometry"/>
                </mxCell>
                <mxCell id="E62PyVoubsWn6WVu2slN-71" value="" style="endArrow=classic;html=1;rounded=0;strokeWidth=3;exitX=0.5;exitY=1;exitDx=0;exitDy=0;entryX=0.5;entryY=0;entryDx=0;entryDy=0;" parent="1" target="E62PyVoubsWn6WVu2slN-79" edge="1">
                    <mxGeometry width="50" height="50" relative="1" as="geometry">
                        <mxPoint x="460" y="560" as="sourcePoint"/>
                        <mxPoint x="950" y="730" as="targetPoint"/>
                    </mxGeometry>
                </mxCell>
                <mxCell id="E62PyVoubsWn6WVu2slN-72" value="" style="ellipse;whiteSpace=wrap;html=1;aspect=fixed;strokeWidth=3;fillColor=#964D2A;fontColor=#ffffff;strokeColor=#6D1F00;" parent="1" vertex="1">
                    <mxGeometry x="160" y="600" width="40" height="40" as="geometry"/>
                </mxCell>
                <mxCell id="E62PyVoubsWn6WVu2slN-73" value="" style="endArrow=classic;startArrow=classic;html=1;rounded=0;dashed=1;dashPattern=1 1;strokeWidth=3;entryX=1;entryY=0.5;entryDx=0;entryDy=0;" parent="1" target="E62PyVoubsWn6WVu2slN-72" edge="1">
                    <mxGeometry width="50" height="50" relative="1" as="geometry">
                        <mxPoint x="279.9999999999998" y="620" as="sourcePoint"/>
                        <mxPoint x="270" y="720" as="targetPoint"/>
                    </mxGeometry>
                </mxCell>
                <mxCell id="E62PyVoubsWn6WVu2slN-74" value="" style="ellipse;whiteSpace=wrap;html=1;aspect=fixed;strokeWidth=3;fillColor=none;fontColor=#ffffff;strokeColor=#6D1F00;" parent="1" vertex="1">
                    <mxGeometry x="280" y="600" width="40" height="40" as="geometry"/>
                </mxCell>
                <mxCell id="E62PyVoubsWn6WVu2slN-75" value="" style="endArrow=classic;html=1;rounded=0;strokeWidth=3;exitX=1.007;exitY=0.668;exitDx=0;exitDy=0;exitPerimeter=0;" parent="1" source="E62PyVoubsWn6WVu2slN-74" edge="1">
                    <mxGeometry width="50" height="50" relative="1" as="geometry">
                        <mxPoint x="460" y="950" as="sourcePoint"/>
                        <mxPoint x="439.9999999999998" y="700" as="targetPoint"/>
                    </mxGeometry>
                </mxCell>
                <mxCell id="E62PyVoubsWn6WVu2slN-76" value="" style="endArrow=classic;startArrow=classic;html=1;rounded=0;dashed=1;dashPattern=1 1;strokeWidth=3;entryX=1;entryY=0.5;entryDx=0;entryDy=0;" parent="1" target="E62PyVoubsWn6WVu2slN-80" edge="1">
                    <mxGeometry width="50" height="50" relative="1" as="geometry">
                        <mxPoint x="560" y="700" as="sourcePoint"/>
                        <mxPoint x="550" y="800" as="targetPoint"/>
                    </mxGeometry>
                </mxCell>
                <mxCell id="E62PyVoubsWn6WVu2slN-77" value="" style="ellipse;whiteSpace=wrap;html=1;aspect=fixed;strokeWidth=3;fillColor=#E68E29;fontColor=#000000;strokeColor=#CC6600;" parent="1" vertex="1">
                    <mxGeometry x="560" y="680" width="40" height="40" as="geometry"/>
                </mxCell>
                <mxCell id="E62PyVoubsWn6WVu2slN-78" value="" style="endArrow=classic;html=1;rounded=0;strokeWidth=3;exitX=0.5;exitY=1;exitDx=0;exitDy=0;entryX=0.5;entryY=0;entryDx=0;entryDy=0;" parent="1" edge="1">
                    <mxGeometry width="50" height="50" relative="1" as="geometry">
                        <mxPoint x="459.71000000000004" y="640" as="sourcePoint"/>
                        <mxPoint x="459.71000000000004" y="680" as="targetPoint"/>
                    </mxGeometry>
                </mxCell>
                <mxCell id="E62PyVoubsWn6WVu2slN-79" value="" style="ellipse;whiteSpace=wrap;html=1;aspect=fixed;strokeWidth=3;fillColor=none;fontColor=#000000;strokeColor=#CC6600;" parent="1" vertex="1">
                    <mxGeometry x="440" y="600" width="40" height="40" as="geometry"/>
                </mxCell>
                <mxCell id="E62PyVoubsWn6WVu2slN-80" value="" style="ellipse;whiteSpace=wrap;html=1;aspect=fixed;strokeWidth=3;fillColor=none;fontColor=#000000;strokeColor=#CC6600;" parent="1" vertex="1">
                    <mxGeometry x="440" y="680" width="40" height="40" as="geometry"/>
                </mxCell>
                <mxCell id="E62PyVoubsWn6WVu2slN-81" value="" style="ellipse;whiteSpace=wrap;html=1;aspect=fixed;strokeWidth=3;fillColor=#964D2A;fontColor=#ffffff;strokeColor=#6D1F00;" parent="1" vertex="1">
                    <mxGeometry x="160" y="680" width="40" height="40" as="geometry"/>
                </mxCell>
                <mxCell id="E62PyVoubsWn6WVu2slN-82" value="" style="endArrow=classic;startArrow=classic;html=1;rounded=0;dashed=1;dashPattern=1 1;strokeWidth=3;entryX=1;entryY=0.5;entryDx=0;entryDy=0;" parent="1" target="E62PyVoubsWn6WVu2slN-81" edge="1">
                    <mxGeometry width="50" height="50" relative="1" as="geometry">
                        <mxPoint x="279.9999999999998" y="700.0000000000001" as="sourcePoint"/>
                        <mxPoint x="270" y="800" as="targetPoint"/>
                    </mxGeometry>
                </mxCell>
                <mxCell id="E62PyVoubsWn6WVu2slN-83" value="" style="ellipse;whiteSpace=wrap;html=1;aspect=fixed;strokeWidth=3;fillColor=none;fontColor=#ffffff;strokeColor=#6D1F00;" parent="1" vertex="1">
                    <mxGeometry x="280" y="680" width="40" height="40" as="geometry"/>
                </mxCell>
                <mxCell id="E62PyVoubsWn6WVu2slN-84" value="" style="endArrow=classic;html=1;rounded=0;strokeWidth=3;exitX=1.007;exitY=0.668;exitDx=0;exitDy=0;exitPerimeter=0;" parent="1" source="E62PyVoubsWn6WVu2slN-83" edge="1">
                    <mxGeometry width="50" height="50" relative="1" as="geometry">
                        <mxPoint x="460" y="1030" as="sourcePoint"/>
                        <mxPoint x="439.9999999999998" y="780.0000000000001" as="targetPoint"/>
                    </mxGeometry>
                </mxCell>
                <mxCell id="E62PyVoubsWn6WVu2slN-85" value="" style="endArrow=classic;startArrow=classic;html=1;rounded=0;dashed=1;dashPattern=1 1;strokeWidth=3;entryX=1;entryY=0.5;entryDx=0;entryDy=0;" parent="1" target="E62PyVoubsWn6WVu2slN-94" edge="1">
                    <mxGeometry width="50" height="50" relative="1" as="geometry">
                        <mxPoint x="560" y="780.0000000000001" as="sourcePoint"/>
                        <mxPoint x="550" y="880" as="targetPoint"/>
                    </mxGeometry>
                </mxCell>
                <mxCell id="E62PyVoubsWn6WVu2slN-86" value="" style="ellipse;whiteSpace=wrap;html=1;aspect=fixed;strokeWidth=3;fillColor=#E68E29;fontColor=#000000;strokeColor=#CC6600;" parent="1" vertex="1">
                    <mxGeometry x="560" y="760" width="40" height="40" as="geometry"/>
                </mxCell>
                <mxCell id="E62PyVoubsWn6WVu2slN-87" value="" style="ellipse;whiteSpace=wrap;html=1;aspect=fixed;strokeWidth=3;fillColor=#964D2A;fontColor=#ffffff;strokeColor=#6D1F00;" parent="1" vertex="1">
                    <mxGeometry x="160" y="760" width="40" height="40" as="geometry"/>
                </mxCell>
                <mxCell id="E62PyVoubsWn6WVu2slN-88" value="" style="endArrow=classic;startArrow=classic;html=1;rounded=0;dashed=1;dashPattern=1 1;strokeWidth=3;entryX=1;entryY=0.5;entryDx=0;entryDy=0;" parent="1" target="E62PyVoubsWn6WVu2slN-87" edge="1">
                    <mxGeometry width="50" height="50" relative="1" as="geometry">
                        <mxPoint x="279.9999999999998" y="780.0000000000001" as="sourcePoint"/>
                        <mxPoint x="270" y="880" as="targetPoint"/>
                    </mxGeometry>
                </mxCell>
                <mxCell id="E62PyVoubsWn6WVu2slN-89" value="" style="ellipse;whiteSpace=wrap;html=1;aspect=fixed;strokeWidth=3;fillColor=none;fontColor=#ffffff;strokeColor=#6D1F00;" parent="1" vertex="1">
                    <mxGeometry x="280" y="760" width="40" height="40" as="geometry"/>
                </mxCell>
                <mxCell id="E62PyVoubsWn6WVu2slN-94" value="" style="ellipse;whiteSpace=wrap;html=1;aspect=fixed;strokeWidth=3;fillColor=none;fontColor=#000000;strokeColor=#CC6600;" parent="1" vertex="1">
                    <mxGeometry x="440" y="760" width="40" height="40" as="geometry"/>
                </mxCell>
                <mxCell id="E62PyVoubsWn6WVu2slN-96" value="" style="endArrow=classic;html=1;rounded=0;strokeWidth=3;exitX=0.5;exitY=1;exitDx=0;exitDy=0;entryX=0.5;entryY=0;entryDx=0;entryDy=0;" parent="1" edge="1">
                    <mxGeometry width="50" height="50" relative="1" as="geometry">
                        <mxPoint x="459.54999999999995" y="720" as="sourcePoint"/>
                        <mxPoint x="459.54999999999995" y="760" as="targetPoint"/>
                    </mxGeometry>
                </mxCell>
                <mxCell id="E62PyVoubsWn6WVu2slN-97" value="&lt;font style=&quot;font-size: 30px&quot;&gt;&lt;b&gt;10&lt;sup&gt;6&lt;/sup&gt;&lt;/b&gt;&lt;/font&gt;" style="text;html=1;strokeColor=none;fillColor=none;align=center;verticalAlign=middle;whiteSpace=wrap;rounded=0;" parent="1" vertex="1">
                    <mxGeometry x="20" y="100" width="80" height="80" as="geometry"/>
                </mxCell>
                <mxCell id="E62PyVoubsWn6WVu2slN-98" value="&lt;font&gt;&lt;b&gt;&lt;span style=&quot;font-size: 30px&quot;&gt;10&lt;/span&gt;&lt;span style=&quot;font-size: 25px&quot;&gt;&lt;sup&gt;5&lt;/sup&gt;&lt;/span&gt;&lt;/b&gt;&lt;/font&gt;" style="text;html=1;strokeColor=none;fillColor=none;align=center;verticalAlign=middle;whiteSpace=wrap;rounded=0;" parent="1" vertex="1">
                    <mxGeometry x="20" y="180" width="80" height="80" as="geometry"/>
                </mxCell>
                <mxCell id="E62PyVoubsWn6WVu2slN-101" value="&lt;font&gt;&lt;b&gt;&lt;span style=&quot;font-size: 30px&quot;&gt;10&lt;/span&gt;&lt;span style=&quot;font-size: 25px&quot;&gt;&lt;sup&gt;4&lt;/sup&gt;&lt;/span&gt;&lt;/b&gt;&lt;/font&gt;" style="text;html=1;strokeColor=none;fillColor=none;align=center;verticalAlign=middle;whiteSpace=wrap;rounded=0;fontSize=30;fontFamily=Helvetica;" parent="1" vertex="1">
                    <mxGeometry x="20" y="260" width="80" height="80" as="geometry"/>
                </mxCell>
                <mxCell id="E62PyVoubsWn6WVu2slN-103" value="&lt;b&gt;&lt;span style=&quot;font-size: 30px&quot;&gt;C&lt;/span&gt;&lt;sup style=&quot;font-size: 30px&quot;&gt;*&lt;/sup&gt;&lt;br&gt;&lt;span style=&quot;font-size: 25px&quot;&gt;[ug m&lt;sup&gt;-3&lt;/sup&gt;]&lt;/span&gt;&lt;br&gt;&lt;/b&gt;" style="text;html=1;strokeColor=none;fillColor=none;align=center;verticalAlign=middle;whiteSpace=wrap;rounded=0;" parent="1" vertex="1">
                    <mxGeometry y="15" width="120" height="80" as="geometry"/>
                </mxCell>
                <mxCell id="E62PyVoubsWn6WVu2slN-104" value="&lt;b&gt;&lt;span style=&quot;font-size: 30px&quot;&gt;&lt;font color=&quot;#663300&quot;&gt;POA&lt;/font&gt;&lt;/span&gt;&lt;br&gt;&lt;/b&gt;" style="text;html=1;strokeColor=none;fillColor=none;align=center;verticalAlign=middle;whiteSpace=wrap;rounded=0;" parent="1" vertex="1">
                    <mxGeometry x="190" y="20" width="120" height="80" as="geometry"/>
                </mxCell>
                <mxCell id="E62PyVoubsWn6WVu2slN-105" value="&lt;b&gt;&lt;span style=&quot;font-size: 30px&quot;&gt;&lt;font color=&quot;#e68e29&quot;&gt;siSOA&lt;/font&gt;&lt;/span&gt;&lt;br&gt;&lt;/b&gt;" style="text;html=1;strokeColor=none;fillColor=none;align=center;verticalAlign=middle;whiteSpace=wrap;rounded=0;" parent="1" vertex="1">
                    <mxGeometry x="470" y="20" width="120" height="80" as="geometry"/>
                </mxCell>
                <mxCell id="E62PyVoubsWn6WVu2slN-106" value="&lt;font&gt;&lt;b&gt;&lt;span style=&quot;font-size: 30px&quot;&gt;10&lt;/span&gt;&lt;span style=&quot;font-size: 25px&quot;&gt;&lt;sup&gt;3&lt;/sup&gt;&lt;/span&gt;&lt;/b&gt;&lt;/font&gt;" style="text;html=1;strokeColor=none;fillColor=none;align=center;verticalAlign=middle;whiteSpace=wrap;rounded=0;fontSize=30;fontFamily=Helvetica;" parent="1" vertex="1">
                    <mxGeometry x="20" y="340" width="80" height="80" as="geometry"/>
                </mxCell>
                <mxCell id="E62PyVoubsWn6WVu2slN-107" value="&lt;font&gt;&lt;b&gt;&lt;span style=&quot;font-size: 30px&quot;&gt;10&lt;/span&gt;&lt;span style=&quot;font-size: 25px&quot;&gt;&lt;sup&gt;2&lt;/sup&gt;&lt;/span&gt;&lt;/b&gt;&lt;/font&gt;" style="text;html=1;strokeColor=none;fillColor=none;align=center;verticalAlign=middle;whiteSpace=wrap;rounded=0;fontSize=30;fontFamily=Helvetica;" parent="1" vertex="1">
                    <mxGeometry x="20" y="420" width="80" height="80" as="geometry"/>
                </mxCell>
                <mxCell id="E62PyVoubsWn6WVu2slN-108" value="&lt;font&gt;&lt;b&gt;&lt;span style=&quot;font-size: 30px&quot;&gt;10&lt;/span&gt;&lt;span style=&quot;font-size: 25px&quot;&gt;&lt;sup&gt;1&lt;/sup&gt;&lt;/span&gt;&lt;/b&gt;&lt;/font&gt;" style="text;html=1;strokeColor=none;fillColor=none;align=center;verticalAlign=middle;whiteSpace=wrap;rounded=0;fontSize=30;fontFamily=Helvetica;" parent="1" vertex="1">
                    <mxGeometry x="20" y="500" width="80" height="80" as="geometry"/>
                </mxCell>
                <mxCell id="E62PyVoubsWn6WVu2slN-109" value="&lt;font&gt;&lt;b&gt;&lt;span style=&quot;font-size: 30px&quot;&gt;10&lt;/span&gt;&lt;span style=&quot;font-size: 25px&quot;&gt;&lt;sup&gt;0&lt;/sup&gt;&lt;/span&gt;&lt;/b&gt;&lt;/font&gt;" style="text;html=1;strokeColor=none;fillColor=none;align=center;verticalAlign=middle;whiteSpace=wrap;rounded=0;fontSize=30;fontFamily=Helvetica;" parent="1" vertex="1">
                    <mxGeometry x="20" y="580" width="80" height="80" as="geometry"/>
                </mxCell>
                <mxCell id="E62PyVoubsWn6WVu2slN-110" value="&lt;font&gt;&lt;b&gt;&lt;span style=&quot;font-size: 30px&quot;&gt;10&lt;/span&gt;&lt;span style=&quot;font-size: 25px&quot;&gt;&lt;sup&gt;-1&lt;/sup&gt;&lt;/span&gt;&lt;/b&gt;&lt;/font&gt;" style="text;html=1;strokeColor=none;fillColor=none;align=center;verticalAlign=middle;whiteSpace=wrap;rounded=0;fontSize=30;fontFamily=Helvetica;" parent="1" vertex="1">
                    <mxGeometry x="20" y="660" width="80" height="80" as="geometry"/>
                </mxCell>
                <mxCell id="E62PyVoubsWn6WVu2slN-111" value="&lt;font&gt;&lt;b&gt;&lt;span style=&quot;font-size: 30px&quot;&gt;10&lt;/span&gt;&lt;span style=&quot;font-size: 25px&quot;&gt;&lt;sup&gt;-2&lt;/sup&gt;&lt;/span&gt;&lt;/b&gt;&lt;/font&gt;" style="text;html=1;strokeColor=none;fillColor=none;align=center;verticalAlign=middle;whiteSpace=wrap;rounded=0;fontSize=30;fontFamily=Helvetica;" parent="1" vertex="1">
                    <mxGeometry x="20" y="740" width="80" height="80" as="geometry"/>
                </mxCell>
                <mxCell id="E62PyVoubsWn6WVu2slN-112" value="" style="endArrow=classic;startArrow=classic;html=1;rounded=0;dashed=1;dashPattern=1 1;strokeWidth=3;entryX=1;entryY=0.5;entryDx=0;entryDy=0;" parent="1" target="E62PyVoubsWn6WVu2slN-114" edge="1">
                    <mxGeometry width="50" height="50" relative="1" as="geometry">
                        <mxPoint x="960" y="380.0000000000002" as="sourcePoint"/>
                        <mxPoint x="950" y="480" as="targetPoint"/>
                    </mxGeometry>
                </mxCell>
                <mxCell id="E62PyVoubsWn6WVu2slN-113" value="" style="ellipse;whiteSpace=wrap;html=1;aspect=fixed;strokeWidth=3;fillColor=#29FFDB;fontColor=#000000;strokeColor=#007FFF;" parent="1" vertex="1">
                    <mxGeometry x="960" y="360" width="40" height="40" as="geometry"/>
                </mxCell>
                <mxCell id="E62PyVoubsWn6WVu2slN-114" value="" style="ellipse;whiteSpace=wrap;html=1;aspect=fixed;strokeWidth=3;fillColor=none;fontColor=#000000;strokeColor=#007FFF;" parent="1" vertex="1">
                    <mxGeometry x="840" y="360" width="40" height="40" as="geometry"/>
                </mxCell>
                <mxCell id="E62PyVoubsWn6WVu2slN-115" value="" style="endArrow=classic;startArrow=classic;html=1;rounded=0;dashed=1;dashPattern=1 1;strokeWidth=3;entryX=1;entryY=0.5;entryDx=0;entryDy=0;" parent="1" target="E62PyVoubsWn6WVu2slN-120" edge="1">
                    <mxGeometry width="50" height="50" relative="1" as="geometry">
                        <mxPoint x="960" y="460" as="sourcePoint"/>
                        <mxPoint x="950" y="560" as="targetPoint"/>
                    </mxGeometry>
                </mxCell>
                <mxCell id="E62PyVoubsWn6WVu2slN-116" value="" style="ellipse;whiteSpace=wrap;html=1;aspect=fixed;strokeWidth=3;fillColor=#29FFDB;fontColor=#000000;strokeColor=#007FFF;" parent="1" vertex="1">
                    <mxGeometry x="960" y="440" width="40" height="40" as="geometry"/>
                </mxCell>
                <mxCell id="E62PyVoubsWn6WVu2slN-117" value="" style="endArrow=classic;startArrow=classic;html=1;rounded=0;dashed=1;dashPattern=1 1;strokeWidth=3;entryX=1;entryY=0.5;entryDx=0;entryDy=0;" parent="1" target="E62PyVoubsWn6WVu2slN-121" edge="1">
                    <mxGeometry width="50" height="50" relative="1" as="geometry">
                        <mxPoint x="960" y="540" as="sourcePoint"/>
                        <mxPoint x="950" y="640" as="targetPoint"/>
                    </mxGeometry>
                </mxCell>
                <mxCell id="E62PyVoubsWn6WVu2slN-118" value="" style="ellipse;whiteSpace=wrap;html=1;aspect=fixed;strokeWidth=3;fillColor=#29FFDB;fontColor=#000000;strokeColor=#007FFF;" parent="1" vertex="1">
                    <mxGeometry x="960" y="520" width="40" height="40" as="geometry"/>
                </mxCell>
                <mxCell id="E62PyVoubsWn6WVu2slN-119" value="" style="endArrow=classic;html=1;rounded=0;strokeWidth=3;exitX=0.5;exitY=1;exitDx=0;exitDy=0;entryX=0.5;entryY=0;entryDx=0;entryDy=0;" parent="1" edge="1">
                    <mxGeometry width="50" height="50" relative="1" as="geometry">
                        <mxPoint x="859.71" y="480" as="sourcePoint"/>
                        <mxPoint x="859.71" y="520" as="targetPoint"/>
                    </mxGeometry>
                </mxCell>
                <mxCell id="E62PyVoubsWn6WVu2slN-120" value="" style="ellipse;whiteSpace=wrap;html=1;aspect=fixed;strokeWidth=3;fillColor=none;fontColor=#000000;strokeColor=#007FFF;" parent="1" vertex="1">
                    <mxGeometry x="840" y="440" width="40" height="40" as="geometry"/>
                </mxCell>
                <mxCell id="E62PyVoubsWn6WVu2slN-121" value="" style="ellipse;whiteSpace=wrap;html=1;aspect=fixed;strokeWidth=3;fillColor=none;fontColor=#000000;strokeColor=#007FFF;" parent="1" vertex="1">
                    <mxGeometry x="840" y="520" width="40" height="40" as="geometry"/>
                </mxCell>
                <mxCell id="E62PyVoubsWn6WVu2slN-122" value="" style="endArrow=classic;html=1;rounded=0;strokeWidth=3;exitX=0.5;exitY=1;exitDx=0;exitDy=0;entryX=0.5;entryY=0;entryDx=0;entryDy=0;" parent="1" edge="1">
                    <mxGeometry width="50" height="50" relative="1" as="geometry">
                        <mxPoint x="859.5500000000002" y="400.0000000000002" as="sourcePoint"/>
                        <mxPoint x="859.5500000000002" y="440.0000000000002" as="targetPoint"/>
                    </mxGeometry>
                </mxCell>
                <mxCell id="E62PyVoubsWn6WVu2slN-123" value="" style="endArrow=classic;startArrow=classic;html=1;rounded=0;dashed=1;dashPattern=1 1;strokeWidth=3;entryX=1;entryY=0.5;entryDx=0;entryDy=0;" parent="1" target="E62PyVoubsWn6WVu2slN-129" edge="1">
                    <mxGeometry width="50" height="50" relative="1" as="geometry">
                        <mxPoint x="960" y="620" as="sourcePoint"/>
                        <mxPoint x="950" y="720" as="targetPoint"/>
                    </mxGeometry>
                </mxCell>
                <mxCell id="E62PyVoubsWn6WVu2slN-124" value="" style="ellipse;whiteSpace=wrap;html=1;aspect=fixed;strokeWidth=3;fillColor=#29FFDB;fontColor=#000000;strokeColor=#007FFF;" parent="1" vertex="1">
                    <mxGeometry x="960" y="600" width="40" height="40" as="geometry"/>
                </mxCell>
                <mxCell id="E62PyVoubsWn6WVu2slN-125" value="" style="endArrow=classic;html=1;rounded=0;strokeWidth=3;exitX=0.5;exitY=1;exitDx=0;exitDy=0;entryX=0.5;entryY=0;entryDx=0;entryDy=0;" parent="1" target="E62PyVoubsWn6WVu2slN-129" edge="1">
                    <mxGeometry width="50" height="50" relative="1" as="geometry">
                        <mxPoint x="860" y="560" as="sourcePoint"/>
                        <mxPoint x="1350" y="730" as="targetPoint"/>
                    </mxGeometry>
                </mxCell>
                <mxCell id="E62PyVoubsWn6WVu2slN-126" value="" style="endArrow=classic;startArrow=classic;html=1;rounded=0;dashed=1;dashPattern=1 1;strokeWidth=3;entryX=1;entryY=0.5;entryDx=0;entryDy=0;" parent="1" target="E62PyVoubsWn6WVu2slN-130" edge="1">
                    <mxGeometry width="50" height="50" relative="1" as="geometry">
                        <mxPoint x="960" y="700" as="sourcePoint"/>
                        <mxPoint x="950" y="800" as="targetPoint"/>
                    </mxGeometry>
                </mxCell>
                <mxCell id="E62PyVoubsWn6WVu2slN-127" value="" style="ellipse;whiteSpace=wrap;html=1;aspect=fixed;strokeWidth=3;fillColor=#29FFDB;fontColor=#000000;strokeColor=#007FFF;" parent="1" vertex="1">
                    <mxGeometry x="960" y="680" width="40" height="40" as="geometry"/>
                </mxCell>
                <mxCell id="E62PyVoubsWn6WVu2slN-128" value="" style="endArrow=classic;html=1;rounded=0;strokeWidth=3;exitX=0.5;exitY=1;exitDx=0;exitDy=0;entryX=0.5;entryY=0;entryDx=0;entryDy=0;" parent="1" edge="1">
                    <mxGeometry width="50" height="50" relative="1" as="geometry">
                        <mxPoint x="859.71" y="640" as="sourcePoint"/>
                        <mxPoint x="859.71" y="680" as="targetPoint"/>
                    </mxGeometry>
                </mxCell>
                <mxCell id="E62PyVoubsWn6WVu2slN-129" value="" style="ellipse;whiteSpace=wrap;html=1;aspect=fixed;strokeWidth=3;fillColor=none;fontColor=#000000;strokeColor=#007FFF;" parent="1" vertex="1">
                    <mxGeometry x="840" y="600" width="40" height="40" as="geometry"/>
                </mxCell>
                <mxCell id="E62PyVoubsWn6WVu2slN-130" value="" style="ellipse;whiteSpace=wrap;html=1;aspect=fixed;strokeWidth=3;fillColor=none;fontColor=#000000;strokeColor=#007FFF;" parent="1" vertex="1">
                    <mxGeometry x="840" y="680" width="40" height="40" as="geometry"/>
                </mxCell>
                <mxCell id="E62PyVoubsWn6WVu2slN-131" value="" style="endArrow=classic;startArrow=classic;html=1;rounded=0;dashed=1;dashPattern=1 1;strokeWidth=3;entryX=1;entryY=0.5;entryDx=0;entryDy=0;" parent="1" target="E62PyVoubsWn6WVu2slN-133" edge="1">
                    <mxGeometry width="50" height="50" relative="1" as="geometry">
                        <mxPoint x="960" y="780" as="sourcePoint"/>
                        <mxPoint x="950" y="880" as="targetPoint"/>
                    </mxGeometry>
                </mxCell>
                <mxCell id="E62PyVoubsWn6WVu2slN-132" value="" style="ellipse;whiteSpace=wrap;html=1;aspect=fixed;strokeWidth=3;fillColor=#29FFDB;fontColor=#000000;strokeColor=#007FFF;" parent="1" vertex="1">
                    <mxGeometry x="960" y="760" width="40" height="40" as="geometry"/>
                </mxCell>
                <mxCell id="E62PyVoubsWn6WVu2slN-133" value="" style="ellipse;whiteSpace=wrap;html=1;aspect=fixed;strokeWidth=3;fillColor=none;fontColor=#000000;strokeColor=#007FFF;" parent="1" vertex="1">
                    <mxGeometry x="840" y="760" width="40" height="40" as="geometry"/>
                </mxCell>
                <mxCell id="E62PyVoubsWn6WVu2slN-134" value="" style="endArrow=classic;html=1;rounded=0;strokeWidth=3;exitX=0.5;exitY=1;exitDx=0;exitDy=0;entryX=0.5;entryY=0;entryDx=0;entryDy=0;" parent="1" edge="1">
                    <mxGeometry width="50" height="50" relative="1" as="geometry">
                        <mxPoint x="859.5500000000002" y="720" as="sourcePoint"/>
                        <mxPoint x="859.5500000000002" y="760" as="targetPoint"/>
                    </mxGeometry>
                </mxCell>
                <mxCell id="E62PyVoubsWn6WVu2slN-136" value="&lt;b&gt;&lt;span style=&quot;font-size: 30px&quot;&gt;&lt;font color=&quot;#4fe0e0&quot;&gt;anthropogenic SOA&lt;/font&gt;&lt;/span&gt;&lt;br&gt;&lt;/b&gt;" style="text;html=1;strokeColor=none;fillColor=none;align=center;verticalAlign=middle;whiteSpace=wrap;rounded=0;" parent="1" vertex="1">
                    <mxGeometry x="700" y="20" width="320" height="80" as="geometry"/>
                </mxCell>
                <mxCell id="E62PyVoubsWn6WVu2slN-137" value="" style="shape=cylinder3;whiteSpace=wrap;html=1;boundedLbl=1;backgroundOutline=1;size=15;fontFamily=Helvetica;fontSize=30;fontColor=#E68E29;strokeColor=#007FFF;strokeWidth=3;fillColor=#29FFDB;gradientColor=none;opacity=50;" parent="1" vertex="1">
                    <mxGeometry x="700" y="580" width="60" height="220" as="geometry"/>
                </mxCell>
                <mxCell id="E62PyVoubsWn6WVu2slN-140" value="" style="endArrow=classic;startArrow=classic;html=1;rounded=0;dashed=1;dashPattern=1 1;strokeWidth=3;entryX=1;entryY=0.5;entryDx=0;entryDy=0;" parent="1" target="E62PyVoubsWn6WVu2slN-142" edge="1">
                    <mxGeometry width="50" height="50" relative="1" as="geometry">
                        <mxPoint x="1377" y="380.0000000000002" as="sourcePoint"/>
                        <mxPoint x="1367" y="480" as="targetPoint"/>
                    </mxGeometry>
                </mxCell>
                <mxCell id="E62PyVoubsWn6WVu2slN-141" value="" style="ellipse;whiteSpace=wrap;html=1;aspect=fixed;strokeWidth=3;fillColor=#00CC00;fontColor=#000000;strokeColor=#006600;" parent="1" vertex="1">
                    <mxGeometry x="1377" y="360" width="40" height="40" as="geometry"/>
                </mxCell>
                <mxCell id="E62PyVoubsWn6WVu2slN-142" value="" style="ellipse;whiteSpace=wrap;html=1;aspect=fixed;strokeWidth=3;fillColor=none;fontColor=#000000;strokeColor=#006600;" parent="1" vertex="1">
                    <mxGeometry x="1257" y="360" width="40" height="40" as="geometry"/>
                </mxCell>
                <mxCell id="E62PyVoubsWn6WVu2slN-143" value="" style="endArrow=classic;startArrow=classic;html=1;rounded=0;dashed=1;dashPattern=1 1;strokeWidth=3;entryX=1;entryY=0.5;entryDx=0;entryDy=0;" parent="1" target="E62PyVoubsWn6WVu2slN-148" edge="1">
                    <mxGeometry width="50" height="50" relative="1" as="geometry">
                        <mxPoint x="1377" y="460" as="sourcePoint"/>
                        <mxPoint x="1367" y="560" as="targetPoint"/>
                    </mxGeometry>
                </mxCell>
                <mxCell id="E62PyVoubsWn6WVu2slN-144" value="" style="ellipse;whiteSpace=wrap;html=1;aspect=fixed;strokeWidth=3;fillColor=#00CC00;fontColor=#000000;strokeColor=#006600;" parent="1" vertex="1">
                    <mxGeometry x="1377" y="440" width="40" height="40" as="geometry"/>
                </mxCell>
                <mxCell id="E62PyVoubsWn6WVu2slN-145" value="" style="endArrow=classic;startArrow=classic;html=1;rounded=0;dashed=1;dashPattern=1 1;strokeWidth=3;entryX=1;entryY=0.5;entryDx=0;entryDy=0;" parent="1" target="E62PyVoubsWn6WVu2slN-149" edge="1">
                    <mxGeometry width="50" height="50" relative="1" as="geometry">
                        <mxPoint x="1377" y="540" as="sourcePoint"/>
                        <mxPoint x="1367" y="640" as="targetPoint"/>
                    </mxGeometry>
                </mxCell>
                <mxCell id="E62PyVoubsWn6WVu2slN-146" value="" style="ellipse;whiteSpace=wrap;html=1;aspect=fixed;strokeWidth=3;fillColor=#00CC00;fontColor=#000000;strokeColor=#006600;" parent="1" vertex="1">
                    <mxGeometry x="1377" y="520" width="40" height="40" as="geometry"/>
                </mxCell>
                <mxCell id="E62PyVoubsWn6WVu2slN-148" value="" style="ellipse;whiteSpace=wrap;html=1;aspect=fixed;strokeWidth=3;fillColor=none;fontColor=#000000;strokeColor=#006600;" parent="1" vertex="1">
                    <mxGeometry x="1257" y="440" width="40" height="40" as="geometry"/>
                </mxCell>
                <mxCell id="E62PyVoubsWn6WVu2slN-149" value="" style="ellipse;whiteSpace=wrap;html=1;aspect=fixed;strokeWidth=3;fillColor=none;fontColor=#000000;strokeColor=#006600;" parent="1" vertex="1">
                    <mxGeometry x="1257" y="520" width="40" height="40" as="geometry"/>
                </mxCell>
                <mxCell id="E62PyVoubsWn6WVu2slN-151" value="" style="endArrow=classic;startArrow=classic;html=1;rounded=0;dashed=1;dashPattern=1 1;strokeWidth=3;entryX=1;entryY=0.5;entryDx=0;entryDy=0;" parent="1" target="E62PyVoubsWn6WVu2slN-157" edge="1">
                    <mxGeometry width="50" height="50" relative="1" as="geometry">
                        <mxPoint x="1377" y="620" as="sourcePoint"/>
                        <mxPoint x="1367" y="720" as="targetPoint"/>
                    </mxGeometry>
                </mxCell>
                <mxCell id="E62PyVoubsWn6WVu2slN-152" value="" style="ellipse;whiteSpace=wrap;html=1;aspect=fixed;strokeWidth=3;fillColor=#00CC00;fontColor=#000000;strokeColor=#006600;" parent="1" vertex="1">
                    <mxGeometry x="1377" y="600" width="40" height="40" as="geometry"/>
                </mxCell>
                <mxCell id="E62PyVoubsWn6WVu2slN-154" value="" style="endArrow=classic;startArrow=classic;html=1;rounded=0;dashed=1;dashPattern=1 1;strokeWidth=3;entryX=1;entryY=0.5;entryDx=0;entryDy=0;" parent="1" target="E62PyVoubsWn6WVu2slN-158" edge="1">
                    <mxGeometry width="50" height="50" relative="1" as="geometry">
                        <mxPoint x="1377" y="700" as="sourcePoint"/>
                        <mxPoint x="1367" y="800" as="targetPoint"/>
                    </mxGeometry>
                </mxCell>
                <mxCell id="E62PyVoubsWn6WVu2slN-155" value="" style="ellipse;whiteSpace=wrap;html=1;aspect=fixed;strokeWidth=3;fillColor=#00CC00;fontColor=#000000;strokeColor=#006600;" parent="1" vertex="1">
                    <mxGeometry x="1377" y="680" width="40" height="40" as="geometry"/>
                </mxCell>
                <mxCell id="E62PyVoubsWn6WVu2slN-157" value="" style="ellipse;whiteSpace=wrap;html=1;aspect=fixed;strokeWidth=3;fillColor=none;fontColor=#000000;strokeColor=#006600;" parent="1" vertex="1">
                    <mxGeometry x="1257" y="600" width="40" height="40" as="geometry"/>
                </mxCell>
                <mxCell id="E62PyVoubsWn6WVu2slN-158" value="" style="ellipse;whiteSpace=wrap;html=1;aspect=fixed;strokeWidth=3;fillColor=none;fontColor=#000000;strokeColor=#006600;" parent="1" vertex="1">
                    <mxGeometry x="1257" y="680" width="40" height="40" as="geometry"/>
                </mxCell>
                <mxCell id="E62PyVoubsWn6WVu2slN-159" value="" style="endArrow=classic;startArrow=classic;html=1;rounded=0;dashed=1;dashPattern=1 1;strokeWidth=3;entryX=1;entryY=0.5;entryDx=0;entryDy=0;" parent="1" target="E62PyVoubsWn6WVu2slN-161" edge="1">
                    <mxGeometry width="50" height="50" relative="1" as="geometry">
                        <mxPoint x="1377" y="780" as="sourcePoint"/>
                        <mxPoint x="1367" y="880" as="targetPoint"/>
                    </mxGeometry>
                </mxCell>
                <mxCell id="E62PyVoubsWn6WVu2slN-160" value="" style="ellipse;whiteSpace=wrap;html=1;aspect=fixed;strokeWidth=3;fillColor=#00CC00;fontColor=#000000;strokeColor=#006600;" parent="1" vertex="1">
                    <mxGeometry x="1377" y="760" width="40" height="40" as="geometry"/>
                </mxCell>
                <mxCell id="E62PyVoubsWn6WVu2slN-161" value="" style="ellipse;whiteSpace=wrap;html=1;aspect=fixed;strokeWidth=3;fillColor=none;fontColor=#000000;strokeColor=#006600;" parent="1" vertex="1">
                    <mxGeometry x="1257" y="760" width="40" height="40" as="geometry"/>
                </mxCell>
                <mxCell id="E62PyVoubsWn6WVu2slN-165" value="" style="shape=singleArrow;direction=north;whiteSpace=wrap;html=1;fontFamily=Helvetica;fontSize=30;fontColor=#39BFA4;strokeColor=#006600;strokeWidth=3;fillColor=#006600;gradientColor=none;opacity=50;" parent="1" vertex="1">
                    <mxGeometry x="1107" y="570" width="60" height="230" as="geometry"/>
                </mxCell>
                <mxCell id="E62PyVoubsWn6WVu2slN-166" value="" style="triangle;whiteSpace=wrap;html=1;fontFamily=Helvetica;fontSize=30;fontColor=#39BFA4;strokeColor=#006600;strokeWidth=3;fillColor=#006600;gradientColor=none;rotation=-90;opacity=50;" parent="1" vertex="1">
                    <mxGeometry x="1107" y="590" width="60" height="80" as="geometry"/>
                </mxCell>
                <mxCell id="E62PyVoubsWn6WVu2slN-167" value="" style="triangle;whiteSpace=wrap;html=1;fontFamily=Helvetica;fontSize=30;fontColor=#39BFA4;strokeColor=#006600;strokeWidth=3;fillColor=#006600;gradientColor=none;rotation=-90;opacity=50;" parent="1" vertex="1">
                    <mxGeometry x="1107" y="630" width="60" height="80" as="geometry"/>
                </mxCell>
                <mxCell id="E62PyVoubsWn6WVu2slN-168" value="" style="triangle;whiteSpace=wrap;html=1;fontFamily=Helvetica;fontSize=30;fontColor=#39BFA4;strokeColor=#006600;strokeWidth=3;fillColor=#006600;gradientColor=none;rotation=-90;opacity=50;" parent="1" vertex="1">
                    <mxGeometry x="1107.5" y="666.5" width="63" height="84" as="geometry"/>
                </mxCell>
                <mxCell id="E62PyVoubsWn6WVu2slN-170" value="&lt;b&gt;&lt;span style=&quot;font-size: 30px&quot;&gt;&lt;font color=&quot;#006600&quot;&gt;biogenic SOA&lt;/font&gt;&lt;/span&gt;&lt;br&gt;&lt;/b&gt;" style="text;html=1;strokeColor=none;fillColor=none;align=center;verticalAlign=middle;whiteSpace=wrap;rounded=0;" parent="1" vertex="1">
                    <mxGeometry x="1150" y="20" width="230" height="80" as="geometry"/>
                </mxCell>
                <mxCell id="E62PyVoubsWn6WVu2slN-177" value="" style="ellipse;shape=cloud;whiteSpace=wrap;html=1;fontFamily=Helvetica;fontSize=30;fontColor=#E68E29;strokeColor=#007FFF;strokeWidth=3;fillColor=#29FFDB;gradientColor=none;opacity=50;" parent="1" vertex="1">
                    <mxGeometry x="704" y="79" width="196" height="190" as="geometry"/>
                </mxCell>
                <mxCell id="E62PyVoubsWn6WVu2slN-178" value="" style="ellipse;shape=cloud;whiteSpace=wrap;html=1;fontFamily=Helvetica;fontSize=30;fontColor=#E68E29;strokeColor=#007FFF;strokeWidth=3;fillColor=#29FFDB;gradientColor=none;opacity=50;" parent="1" vertex="1">
                    <mxGeometry x="702" y="490" width="58" height="60" as="geometry"/>
                </mxCell>
                <mxCell id="E62PyVoubsWn6WVu2slN-179" value="" style="ellipse;shape=cloud;whiteSpace=wrap;html=1;fontFamily=Helvetica;fontSize=30;fontColor=#E68E29;strokeColor=#007FFF;strokeWidth=3;fillColor=#29FFDB;gradientColor=none;opacity=50;" parent="1" vertex="1">
                    <mxGeometry x="693" y="390" width="98" height="100" as="geometry"/>
                </mxCell>
                <mxCell id="E62PyVoubsWn6WVu2slN-181" value="" style="rounded=0;whiteSpace=wrap;html=1;fontFamily=Helvetica;fontSize=30;fontColor=#4FE0E0;strokeColor=#000000;strokeWidth=3;fillColor=none;gradientColor=none;" parent="1" vertex="1">
                    <mxGeometry x="10" y="840" width="1450" height="180" as="geometry"/>
                </mxCell>
                <mxCell id="E62PyVoubsWn6WVu2slN-182" value="&lt;font color=&quot;#000000&quot; size=&quot;1&quot;&gt;&lt;b style=&quot;font-size: 35px&quot;&gt;Legend&lt;/b&gt;&lt;/font&gt;" style="text;html=1;strokeColor=none;fillColor=none;align=center;verticalAlign=middle;whiteSpace=wrap;rounded=0;fontFamily=Helvetica;fontSize=30;fontColor=#4FE0E0;" parent="1" vertex="1">
                    <mxGeometry x="99" y="850" width="150" height="50" as="geometry"/>
                </mxCell>
                <mxCell id="E62PyVoubsWn6WVu2slN-184" value="" style="ellipse;whiteSpace=wrap;html=1;aspect=fixed;strokeWidth=3;fillColor=#B3B3B3;fontColor=#ffffff;strokeColor=#000000;" parent="1" vertex="1">
                    <mxGeometry x="289" y="863" width="40" height="40" as="geometry"/>
                </mxCell>
                <mxCell id="E62PyVoubsWn6WVu2slN-185" value="" style="ellipse;whiteSpace=wrap;html=1;aspect=fixed;strokeWidth=3;fillColor=none;fontColor=#ffffff;strokeColor=#000000;" parent="1" vertex="1">
                    <mxGeometry x="289" y="950" width="40" height="40" as="geometry"/>
                </mxCell>
                <mxCell id="E62PyVoubsWn6WVu2slN-187" value="Filled circles -- particle species" style="text;html=1;strokeColor=none;fillColor=none;align=center;verticalAlign=middle;whiteSpace=wrap;rounded=0;fontFamily=Helvetica;fontSize=35;fontColor=#000000;" parent="1" vertex="1">
                    <mxGeometry x="325" y="868" width="520" height="30" as="geometry"/>
                </mxCell>
                <mxCell id="E62PyVoubsWn6WVu2slN-188" value="Empty circles -- gas species" style="text;html=1;strokeColor=none;fillColor=none;align=center;verticalAlign=middle;whiteSpace=wrap;rounded=0;fontFamily=Helvetica;fontSize=35;fontColor=#000000;" parent="1" vertex="1">
                    <mxGeometry x="315" y="950" width="500" height="30" as="geometry"/>
                </mxCell>
                <mxCell id="E62PyVoubsWn6WVu2slN-189" value="" style="endArrow=classic;startArrow=classic;html=1;rounded=0;dashed=1;dashPattern=1 1;strokeWidth=3;entryX=1;entryY=0.5;entryDx=0;entryDy=0;" parent="1" edge="1">
                    <mxGeometry width="50" height="50" relative="1" as="geometry">
                        <mxPoint x="1010" y="882.37" as="sourcePoint"/>
                        <mxPoint x="930.0000000000359" y="882.37" as="targetPoint"/>
                    </mxGeometry>
                </mxCell>
                <mxCell id="E62PyVoubsWn6WVu2slN-193" value="" style="endArrow=classic;html=1;rounded=0;strokeWidth=3;exitX=0.5;exitY=1;exitDx=0;exitDy=0;entryX=0.5;entryY=0;entryDx=0;entryDy=0;" parent="1" edge="1">
                    <mxGeometry width="50" height="50" relative="1" as="geometry">
                        <mxPoint x="1007" y="942" as="sourcePoint"/>
                        <mxPoint x="1007" y="982" as="targetPoint"/>
                    </mxGeometry>
                </mxCell>
                <mxCell id="E62PyVoubsWn6WVu2slN-199" value="" style="endArrow=classic;html=1;rounded=0;strokeWidth=3;" parent="1" edge="1">
                    <mxGeometry width="50" height="50" relative="1" as="geometry">
                        <mxPoint x="882" y="952" as="sourcePoint"/>
                        <mxPoint x="972" y="983" as="targetPoint"/>
                        <Array as="points">
                            <mxPoint x="940" y="972"/>
                        </Array>
                    </mxGeometry>
                </mxCell>
                <mxCell id="E62PyVoubsWn6WVu2slN-201" value="Equilibrium partitioning" style="text;html=1;strokeColor=none;fillColor=none;align=center;verticalAlign=middle;whiteSpace=wrap;rounded=0;fontFamily=Helvetica;fontSize=35;fontColor=#000000;" parent="1" vertex="1">
                    <mxGeometry x="1046" y="874" width="380" height="30" as="geometry"/>
                </mxCell>
                <mxCell id="E62PyVoubsWn6WVu2slN-202" value="Reaction with OH" style="text;html=1;strokeColor=none;fillColor=none;align=center;verticalAlign=middle;whiteSpace=wrap;rounded=0;fontFamily=Helvetica;fontSize=35;fontColor=#000000;" parent="1" vertex="1">
                    <mxGeometry x="1049" y="955" width="293" height="30" as="geometry"/>
                </mxCell>
                <mxCell id="E62PyVoubsWn6WVu2slN-210" value="" style="endArrow=none;html=1;rounded=0;fontFamily=Helvetica;fontSize=35;fontColor=#000000;strokeWidth=3;entryX=0.55;entryY=0.95;entryDx=0;entryDy=0;entryPerimeter=0;strokeColor=#4FE0E0;" parent="1" target="E62PyVoubsWn6WVu2slN-177" edge="1">
                    <mxGeometry width="50" height="50" relative="1" as="geometry">
                        <mxPoint x="809" y="620" as="sourcePoint"/>
                        <mxPoint x="800" y="330" as="targetPoint"/>
                    </mxGeometry>
                </mxCell>
                <mxCell id="E62PyVoubsWn6WVu2slN-211" value="" style="endArrow=classic;html=1;rounded=0;fontFamily=Helvetica;fontSize=35;fontColor=#000000;strokeColor=#4FE0E0;strokeWidth=3;entryX=0;entryY=0.5;entryDx=0;entryDy=0;" parent="1" target="E62PyVoubsWn6WVu2slN-114" edge="1">
                    <mxGeometry width="50" height="50" relative="1" as="geometry">
                        <mxPoint x="810" y="380" as="sourcePoint"/>
                        <mxPoint x="940" y="450" as="targetPoint"/>
                    </mxGeometry>
                </mxCell>
                <mxCell id="E62PyVoubsWn6WVu2slN-212" value="" style="endArrow=classic;html=1;rounded=0;fontFamily=Helvetica;fontSize=35;fontColor=#000000;strokeColor=#4FE0E0;strokeWidth=3;entryX=0;entryY=0.5;entryDx=0;entryDy=0;" parent="1" edge="1">
                    <mxGeometry width="50" height="50" relative="1" as="geometry">
                        <mxPoint x="810" y="459.74" as="sourcePoint"/>
                        <mxPoint x="839.9999999999998" y="459.74" as="targetPoint"/>
                    </mxGeometry>
                </mxCell>
                <mxCell id="E62PyVoubsWn6WVu2slN-213" value="" style="endArrow=classic;html=1;rounded=0;fontFamily=Helvetica;fontSize=35;fontColor=#000000;strokeColor=#4FE0E0;strokeWidth=3;entryX=0;entryY=0.5;entryDx=0;entryDy=0;" parent="1" edge="1">
                    <mxGeometry width="50" height="50" relative="1" as="geometry">
                        <mxPoint x="810" y="539.74" as="sourcePoint"/>
                        <mxPoint x="839.9999999999998" y="539.74" as="targetPoint"/>
                    </mxGeometry>
                </mxCell>
                <mxCell id="E62PyVoubsWn6WVu2slN-214" value="" style="endArrow=classic;html=1;rounded=0;fontFamily=Helvetica;fontSize=35;fontColor=#000000;strokeColor=#4FE0E0;strokeWidth=3;entryX=0;entryY=0.5;entryDx=0;entryDy=0;" parent="1" edge="1">
                    <mxGeometry width="50" height="50" relative="1" as="geometry">
                        <mxPoint x="810" y="620" as="sourcePoint"/>
                        <mxPoint x="839.9999999999998" y="619.74" as="targetPoint"/>
                    </mxGeometry>
                </mxCell>
                <mxCell id="E62PyVoubsWn6WVu2slN-215" value="oxidation of VOC precursors" style="text;html=1;strokeColor=none;fillColor=none;align=center;verticalAlign=middle;whiteSpace=wrap;rounded=0;fontFamily=Helvetica;fontSize=20;fontColor=#000000;" parent="1" vertex="1">
                    <mxGeometry x="731" y="134" width="139" height="90" as="geometry"/>
                </mxCell>
                <mxCell id="E62PyVoubsWn6WVu2slN-216" value="" style="ellipse;shape=cloud;whiteSpace=wrap;html=1;fontFamily=Helvetica;fontSize=30;fontColor=#E68E29;strokeColor=#006600;strokeWidth=3;fillColor=#00CC00;gradientColor=none;opacity=50;" parent="1" vertex="1">
                    <mxGeometry x="1121" y="80" width="196" height="190" as="geometry"/>
                </mxCell>
                <mxCell id="E62PyVoubsWn6WVu2slN-217" value="" style="endArrow=none;html=1;rounded=0;fontFamily=Helvetica;fontSize=35;fontColor=#000000;strokeWidth=3;entryX=0.55;entryY=0.95;entryDx=0;entryDy=0;entryPerimeter=0;strokeColor=#006600;" parent="1" target="E62PyVoubsWn6WVu2slN-216" edge="1">
                    <mxGeometry width="50" height="50" relative="1" as="geometry">
                        <mxPoint x="1226" y="621" as="sourcePoint"/>
                        <mxPoint x="1217" y="331" as="targetPoint"/>
                    </mxGeometry>
                </mxCell>
                <mxCell id="E62PyVoubsWn6WVu2slN-218" value="" style="endArrow=classic;html=1;rounded=0;fontFamily=Helvetica;fontSize=35;fontColor=#000000;strokeColor=#006600;strokeWidth=3;entryX=0;entryY=0.5;entryDx=0;entryDy=0;" parent="1" edge="1">
                    <mxGeometry width="50" height="50" relative="1" as="geometry">
                        <mxPoint x="1227" y="381" as="sourcePoint"/>
                        <mxPoint x="1257" y="381" as="targetPoint"/>
                    </mxGeometry>
                </mxCell>
                <mxCell id="E62PyVoubsWn6WVu2slN-219" value="" style="endArrow=classic;html=1;rounded=0;fontFamily=Helvetica;fontSize=35;fontColor=#000000;strokeColor=#006600;strokeWidth=3;entryX=0;entryY=0.5;entryDx=0;entryDy=0;" parent="1" edge="1">
                    <mxGeometry width="50" height="50" relative="1" as="geometry">
                        <mxPoint x="1227" y="460.74" as="sourcePoint"/>
                        <mxPoint x="1257" y="460.74" as="targetPoint"/>
                    </mxGeometry>
                </mxCell>
                <mxCell id="E62PyVoubsWn6WVu2slN-220" value="" style="endArrow=classic;html=1;rounded=0;fontFamily=Helvetica;fontSize=35;fontColor=#000000;strokeColor=#006600;strokeWidth=3;entryX=0;entryY=0.5;entryDx=0;entryDy=0;" parent="1" edge="1">
                    <mxGeometry width="50" height="50" relative="1" as="geometry">
                        <mxPoint x="1227" y="540.74" as="sourcePoint"/>
                        <mxPoint x="1257" y="540.74" as="targetPoint"/>
                    </mxGeometry>
                </mxCell>
                <mxCell id="E62PyVoubsWn6WVu2slN-221" value="" style="endArrow=classic;html=1;rounded=0;fontFamily=Helvetica;fontSize=35;fontColor=#000000;strokeColor=#006600;strokeWidth=3;entryX=0;entryY=0.5;entryDx=0;entryDy=0;" parent="1" edge="1">
                    <mxGeometry width="50" height="50" relative="1" as="geometry">
                        <mxPoint x="1227" y="621" as="sourcePoint"/>
                        <mxPoint x="1257" y="620.74" as="targetPoint"/>
                    </mxGeometry>
                </mxCell>
                <mxCell id="E62PyVoubsWn6WVu2slN-222" value="oxidation of VOC precursors" style="text;html=1;strokeColor=none;fillColor=none;align=center;verticalAlign=middle;whiteSpace=wrap;rounded=0;fontFamily=Helvetica;fontSize=20;fontColor=#000000;" parent="1" vertex="1">
                    <mxGeometry x="1148" y="135" width="139" height="85" as="geometry"/>
                </mxCell>
            </root>
        </mxGraphModel>
    </diagram>
</mxfile>